<?xml version="1.0" encoding="utf-8"?>
<!-- Generator: Adobe Illustrator 23.0.1, SVG Export Plug-In . SVG Version: 6.00 Build 0)  -->
<svg version="1.1" id="Layer_1" xmlns="http://www.w3.org/2000/svg" xmlns:xlink="http://www.w3.org/1999/xlink" x="0px" y="0px"
	 viewBox="0 0 545.3 575" style="enable-background:new 0 0 545.3 575;" xml:space="preserve">
<style type="text/css">
	.st0{fill:#FFB446;}
	.st1{fill:#FFDC64;}
	.st2{fill:#FFFFFF;}
	.st3{fill:#76CDCE;}
	.st4{fill:#96E0DE;}
</style>
<path class="st0" d="M273.8,36.8l-0.3,0.1L271.3,53c5.8-0.2,11.8-0.2,17.9,0C289.2,53,284,45.8,273.8,36.8z"/>
<path class="st0" d="M418.5,168.6c0,0-47.3,8.8-73.8,79.4c0,0-80.3-80.3-55.7-194.9l-14.8-6v501c87.7,0,158.8-71.2,158.8-158.9
	C433.1,301,388.9,230.4,418.5,168.6z"/>
<path class="st1" d="M274.2,204.1v344c64.9-0.2,114.6-56,114.6-121.3C388.9,302.6,291.8,282.2,274.2,204.1z"/>
<path class="st2" d="M344.8,476.8C344.5,371.3,283,318.7,283,318.7c5.3,31.6-2,53.7-8.8,66.5v163
	C313.5,548.1,344.9,516.1,344.8,476.8z"/>
<polygon class="st3" points="273.1,36.9 272.8,36.9 272.2,37.9 272.2,38.6 273.2,37 "/>
<polygon class="st3" points="123.4,279.5 272.2,38.6 272.2,37.9 "/>
<path class="st3" d="M273.1,36.9l-1,1.6v0l-148.8,241L262.2,54c0,0,0,0,0,0L128.3,271.5l-5.5,8.9c0,0.1-0.1,0.1-0.1,0.2
	c0,0,0,0,0,0.1c-17.3,28.4-25.8,60.1-25.8,91.6c0,45.5,17.6,90.5,51.5,124.4c34.3,34.3,79.3,51.5,124.3,51.5c0.5,0,1.1,0,1.6,0V38.8
	L273.1,36.9z"/>
<polygon class="st4" points="272.1,38.6 154.3,229.4 272.8,347.8 "/>
</svg>
