<svg id="b3840fb6-e331-4284-9ec5-c0ea66c6ee2d" data-name="Capa 1" xmlns="http://www.w3.org/2000/svg" viewBox="0 0 573.53 381.69"><defs><style>.a500e7b1-dd6b-4839-a083-daf526bbc2ec{fill:#eee;}.f36281ea-ce30-479a-be03-e306883c0ef8{fill:#b22334;}.b1ffcd84-45d8-457e-9fc5-a75a0d33878a{fill:#3c3b6e;}.ab121418-0987-472b-9fd4-195c040c6bf0{fill:#fff;}.e88cb0f2-6285-4869-8666-9d518d911be7{fill:#41479b;}.beb4ded2-fc80-4bf9-89bf-ebc4c131efa8{fill:#f5f5f5;}.b93e8716-5b67-408d-b003-af79027a6547{fill:#ff4b55;}</style></defs><title>uk-usa</title><path class="a500e7b1-dd6b-4839-a083-daf526bbc2ec" d="M4.77,292V409.46a51.15,51.15,0,0,0,1.09,10c.27,1.37.57,2.73.94,4.07s.94,2.92,1.46,4.34a58.49,58.49,0,0,0,5.3,10.91s0,.08,0,.08h0a61.78,61.78,0,0,0,18.34,18.59L277,292Z" transform="translate(-3.77 -86.48)"/><path class="a500e7b1-dd6b-4839-a083-daf526bbc2ec" d="M575.28,131.2c-.43-1.51-.95-3-1.5-4.43a57.75,57.75,0,0,0-5.28-10.87.07.07,0,0,0,0-.05h0a60.61,60.61,0,0,0-11.13-13.08L291,282.52V292H277l-245,165.4a66.05,66.05,0,0,0,36.44,10.77h445.3c23.49,0,43.77-11.88,54.79-29.36h0s0-.05,0-.06a59.08,59.08,0,0,0,5.28-10.88c.54-1.46,1.07-2.91,1.48-4.41.38-1.33.67-2.68.94-4a52,52,0,0,0,1.09-9.74V145.21a50.78,50.78,0,0,0-1.1-10C576,133.87,575.64,132.52,575.28,131.2Z" transform="translate(-3.77 -86.48)"/><path class="f36281ea-ce30-479a-be03-e306883c0ef8" d="M513.68,86.49H291v29.36H538l19.38-13.08A65.58,65.58,0,0,0,513.68,86.49Z" transform="translate(-3.77 -86.48)"/><polygon class="f36281ea-ce30-479a-be03-e306883c0ef8" points="1 293.61 1 322.97 99.21 322.97 142.71 293.61 1 293.61"/><polygon class="f36281ea-ce30-479a-be03-e306883c0ef8" points="287.26 176.17 287.26 196.04 316.7 176.17 287.26 176.17"/><polygon class="f36281ea-ce30-479a-be03-e306883c0ef8" points="287.26 117.44 287.26 146.81 360.2 146.81 403.7 117.44 287.26 117.44"/><polygon class="f36281ea-ce30-479a-be03-e306883c0ef8" points="1 234.89 1 264.25 186.21 264.25 229.71 234.89 1 234.89"/><path class="f36281ea-ce30-479a-be03-e306883c0ef8" d="M13.6,438.82a61.78,61.78,0,0,0,18.34,18.59l27.54-18.59Z" transform="translate(-3.77 -86.48)"/><polygon class="f36281ea-ce30-479a-be03-e306883c0ef8" points="287.26 58.72 287.26 88.08 447.2 88.08 490.69 58.72 287.26 58.72"/><path class="a500e7b1-dd6b-4839-a083-daf526bbc2ec" d="M4.77,145.21a54.73,54.73,0,0,1,1.08-10A52,52,0,0,0,4.77,145.21Z" transform="translate(-3.77 -86.48)"/><path class="a500e7b1-dd6b-4839-a083-daf526bbc2ec" d="M13.59,115.85a.15.15,0,0,0,0,.07A.36.36,0,0,0,13.59,115.85Z" transform="translate(-3.77 -86.48)"/><path class="a500e7b1-dd6b-4839-a083-daf526bbc2ec" d="M6.8,131.18c.42-1.48.94-2.92,1.46-4.36C7.76,128.26,7.2,129.68,6.8,131.18Z" transform="translate(-3.77 -86.48)"/><path class="b1ffcd84-45d8-457e-9fc5-a75a0d33878a" d="M290,86.48H67.38c-35.13,0-63.61,26.3-63.61,58.73V292H276l14-9.49Z" transform="translate(-3.77 -86.48)"/><polygon class="ab121418-0987-472b-9fd4-195c040c6bf0" points="34.91 57.26 44.72 50.67 54.55 57.26 50.78 46.6 60.62 40.01 48.47 40.01 44.72 29.35 40.98 40.01 28.83 40.01 38.66 46.6 34.91 57.26"/><polygon class="ab121418-0987-472b-9fd4-195c040c6bf0" points="66.69 86.62 76.52 80.03 86.35 86.62 82.58 75.96 92.43 69.37 80.28 69.37 76.52 58.71 72.79 69.37 60.64 69.37 70.47 75.96 66.69 86.62"/><polygon class="ab121418-0987-472b-9fd4-195c040c6bf0" points="130.31 86.62 140.14 80.03 149.97 86.62 146.2 75.96 156.04 69.37 143.89 69.37 140.14 58.71 136.4 69.37 124.25 69.37 134.08 75.96 130.31 86.62"/><polygon class="ab121418-0987-472b-9fd4-195c040c6bf0" points="193.92 86.62 203.75 80.03 213.58 86.62 209.81 75.96 219.66 69.37 207.5 69.37 203.75 58.71 200.01 69.37 187.87 69.37 197.69 75.96 193.92 86.62"/><polygon class="ab121418-0987-472b-9fd4-195c040c6bf0" points="66.69 145.35 76.52 138.75 86.35 145.35 82.58 134.69 92.43 128.1 80.28 128.1 76.52 117.44 72.79 128.1 60.64 128.1 70.47 134.69 66.69 145.35"/><polygon class="ab121418-0987-472b-9fd4-195c040c6bf0" points="130.31 145.35 140.14 138.75 149.97 145.35 146.2 134.69 156.04 128.1 143.89 128.1 140.14 117.44 136.4 128.1 124.25 128.1 134.08 134.69 130.31 145.35"/><polygon class="ab121418-0987-472b-9fd4-195c040c6bf0" points="193.92 145.35 203.75 138.75 213.58 145.35 209.81 134.69 219.66 128.1 207.5 128.1 203.75 117.44 200.01 128.1 187.87 128.1 197.69 134.69 193.92 145.35"/><polygon class="ab121418-0987-472b-9fd4-195c040c6bf0" points="98.5 57.26 108.33 50.67 118.16 57.26 114.39 46.6 124.23 40.01 112.08 40.01 108.33 29.35 104.59 40.01 92.44 40.01 102.27 46.6 98.5 57.26"/><polygon class="ab121418-0987-472b-9fd4-195c040c6bf0" points="162.12 57.26 171.94 50.67 181.77 57.26 178 46.6 187.85 40.01 175.7 40.01 171.94 29.35 168.21 40.01 156.06 40.01 165.88 46.6 162.12 57.26"/><polygon class="ab121418-0987-472b-9fd4-195c040c6bf0" points="225.73 57.26 235.56 50.67 245.39 57.26 241.62 46.6 251.46 40.01 239.31 40.01 235.56 29.35 231.82 40.01 219.67 40.01 229.5 46.6 225.73 57.26"/><polygon class="ab121418-0987-472b-9fd4-195c040c6bf0" points="34.91 115.98 44.72 109.39 54.55 115.98 50.78 105.33 60.62 98.73 48.47 98.73 44.72 88.08 40.98 98.73 28.83 98.73 38.66 105.33 34.91 115.98"/><polygon class="ab121418-0987-472b-9fd4-195c040c6bf0" points="98.51 115.98 108.34 109.39 118.15 115.98 114.4 105.33 124.22 98.73 112.09 98.73 108.34 88.09 104.58 98.73 92.45 98.73 102.26 105.33 98.51 115.98"/><polygon class="ab121418-0987-472b-9fd4-195c040c6bf0" points="162.12 115.98 171.94 109.39 181.77 115.98 178 105.33 187.85 98.73 175.7 98.73 171.94 88.08 168.21 98.73 156.06 98.73 165.88 105.33 162.12 115.98"/><polygon class="ab121418-0987-472b-9fd4-195c040c6bf0" points="225.73 115.98 235.56 109.39 245.39 115.98 241.62 105.33 251.46 98.73 239.31 98.73 235.56 88.08 231.82 98.73 219.67 98.73 229.5 105.33 225.73 115.98"/><polygon class="ab121418-0987-472b-9fd4-195c040c6bf0" points="34.91 174.71 44.72 168.12 54.55 174.71 50.78 164.05 60.62 157.46 48.47 157.46 44.72 146.8 40.98 157.46 28.83 157.46 38.66 164.05 34.91 174.71"/><polygon class="ab121418-0987-472b-9fd4-195c040c6bf0" points="98.51 174.7 108.34 168.11 118.15 174.7 114.4 164.05 124.22 157.46 112.09 157.46 108.34 146.81 104.58 157.46 92.45 157.46 102.26 164.05 98.51 174.7"/><polygon class="ab121418-0987-472b-9fd4-195c040c6bf0" points="162.12 174.71 171.94 168.12 181.77 174.71 178 164.05 187.85 157.46 175.7 157.46 171.94 146.8 168.21 157.46 156.06 157.46 165.88 164.05 162.12 174.71"/><polygon class="ab121418-0987-472b-9fd4-195c040c6bf0" points="225.73 174.71 235.56 168.12 245.39 174.71 241.62 164.05 251.46 157.46 239.31 157.46 235.56 146.8 231.82 157.46 219.67 157.46 229.5 164.05 225.73 174.71"/><path class="e88cb0f2-6285-4869-8666-9d518d911be7" d="M557.48,103,30.94,457.26a42,42,0,0,0,25.21,8.36h479a42.19,42.19,0,0,0,42.19-42.19V138.72A42.15,42.15,0,0,0,557.48,103Z" transform="translate(-3.77 -86.48)"/><path class="beb4ded2-fc80-4bf9-89bf-ebc4c131efa8" d="M576.71,131.75A42.19,42.19,0,0,0,557.48,103L31,457.25a42,42,0,0,0,25.2,8.37h11L247.07,347.73V465.62h97.12V347.73L524.13,465.62h11a42.19,42.19,0,0,0,41.6-35.22L422.92,329.64H577.3V232.51H422.92Z" transform="translate(-3.77 -86.48)"/><polygon class="b93e8716-5b67-408d-b003-af79027a6547" points="245.7 223.73 262.72 223.73 262.72 379.13 321 379.13 321 223.73 573.53 223.73 573.53 165.45 332.31 165.45 245.7 223.73"/><path class="b93e8716-5b67-408d-b003-af79027a6547" d="M31,457.24a41.9,41.9,0,0,0,10.27,5.66L246.53,329.64H220.6Z" transform="translate(-3.77 -86.48)"/><path class="b93e8716-5b67-408d-b003-af79027a6547" d="M359.4,329.64,558.24,458.71a42.65,42.65,0,0,0,13.52-14.39L395.08,329.64Z" transform="translate(-3.77 -86.48)"/><path class="b93e8716-5b67-408d-b003-af79027a6547" d="M557.47,103,365,232.51h14.92L567,111.07A42.31,42.31,0,0,0,557.47,103Z" transform="translate(-3.77 -86.48)"/></svg>