<?xml version="1.0" standalone="no"?>
<!DOCTYPE svg PUBLIC "-//W3C//DTD SVG 20010904//EN"
 "http://www.w3.org/TR/2001/REC-SVG-20010904/DTD/svg10.dtd">
<svg version="1.0" xmlns="http://www.w3.org/2000/svg"
 width="575.000000pt" height="575.000000pt" viewBox="0 0 575.000000 575.000000"
 preserveAspectRatio="xMidYMid meet">
<metadata>
Created by potrace 1.11, written by Peter Selinger 2001-2013
</metadata>
<g transform="translate(0.000000,575.000000) scale(0.100000,-0.100000)"
fill="#000000" stroke="none">
<path d="M2820 5293 c-30 -49 -367 -596 -750 -1218 -383 -621 -715 -1164 -737
-1205 -100 -182 -179 -432 -203 -640 -27 -225 -2 -496 63 -715 210 -700 855
-1209 1575 -1242 l122 -6 0 811 0 810 34 88 c19 49 42 125 51 169 17 84 22
259 10 361 l-7 59 37 -35 c97 -92 237 -291 324 -460 145 -281 225 -577 251
-925 13 -160 7 -248 -21 -355 -63 -234 -256 -432 -484 -495 l-50 -13 38 -1
c59 -1 223 35 338 75 352 122 656 371 846 691 91 154 158 332 195 518 19 93
23 142 22 320 -1 282 -29 485 -134 970 -92 427 -120 665 -100 850 12 113 38
225 70 300 11 25 20 49 20 51 0 21 -164 -51 -247 -107 -63 -44 -201 -177 -253
-244 -64 -83 -163 -254 -200 -344 -18 -45 -36 -81 -40 -79 -19 7 -136 158
-211 271 -188 285 -314 610 -365 942 -29 194 -20 493 22 701 5 27 -1 38 -66
107 -40 42 -78 77 -84 77 -7 0 -37 -39 -66 -87z"/>
<path d="M3008 273 c7 -3 16 -2 19 1 4 3 -2 6 -13 5 -11 0 -14 -3 -6 -6z"/>
</g>
</svg>
