<?xml version="1.0" standalone="no"?>
<!DOCTYPE svg PUBLIC "-//W3C//DTD SVG 20010904//EN"
 "http://www.w3.org/TR/2001/REC-SVG-20010904/DTD/svg10.dtd">
<svg version="1.0" xmlns="http://www.w3.org/2000/svg"
 width="545.000000pt" height="545.000000pt" viewBox="0 0 545.000000 545.000000"
 preserveAspectRatio="xMidYMid meet">
<metadata>
Created by potrace 1.11, written by Peter Selinger 2001-2013
</metadata>
<g transform="translate(0.000000,545.000000) scale(0.100000,-0.100000)"
fill="#000000" stroke="none">
<path d="M2708 5074 c-7 -14 -65 -105 -130 -202 -100 -153 -184 -281 -373
-572 -23 -36 -77 -119 -120 -185 -403 -619 -846 -1302 -878 -1355 -181 -293
-265 -654 -232 -995 9 -91 49 -274 81 -367 25 -72 114 -260 156 -328 122 -197
351 -423 560 -551 156 -96 390 -189 563 -225 136 -28 235 -38 390 -38 161 0
246 9 390 40 11 2 29 6 41 8 56 11 220 73 309 116 90 43 239 134 270 163 7 7
43 37 79 67 150 122 302 325 388 515 33 74 72 182 83 230 2 11 12 54 21 95 14
58 18 122 18 285 1 208 -2 242 -29 425 -20 130 -25 156 -94 466 -94 419 -110
516 -115 692 -5 156 20 303 71 426 13 32 22 60 19 63 -19 19 -264 -107 -332
-171 -96 -90 -147 -144 -195 -208 -33 -42 -59 -79 -59 -82 0 -3 -15 -29 -32
-58 -37 -60 -58 -101 -87 -170 -22 -53 -33 -58 -54 -28 -8 11 -30 37 -49 58
-18 20 -54 64 -78 97 -25 33 -47 62 -51 65 -3 3 -33 50 -68 105 -154 246 -261
525 -306 800 -30 183 -24 464 16 640 4 22 9 45 9 51 0 16 -140 154 -156 154
-7 0 -19 -11 -26 -26z"/>
</g>
</svg>
